<?xml version="1.0" encoding="UTF-8"?>
<svg xmlns="http://www.w3.org/2000/svg" viewBox="0 0 500 500" width="500" height="500">
  <!-- Cream background circle -->
  <circle cx="250" cy="250" r="250" fill="#F5EBE0"/>
  <!-- Kiss of Aroma logo, scaled and centered -->
  <g transform="translate(20, 123) scale(0.4197)">
<path d="M593 287C592.247 288.665 590.949 290.041 589.905 291.484C570.055 318.959 518.064 315.691 505.147 282.789C497.533 263.394 504.972 246.462 514.316 229.191C521.388 216.736 529.511 204.629 537.254 192.589C540.427 187.816 549.903 172.105 553.661 169C548.503 188.595 537.724 207.589 529.948 226.336C528.999 228.291 527.96 230.243 526.998 232.189C519.402 247.552 512.296 265.579 521.501 281.963C528.372 294.193 543.609 301.348 557.429 299.503L557.592 299.561C559.848 300.371 562.641 300.22 565.007 300.114C573.586 299.728 581.21 297.064 587.925 291.697C589.478 290.457 591.663 287.546 593 287Z" fill="#5B4B3C"/>
<path d="M557 299.5C578.426 294.371 590.838 278.143 585.611 255.459C583.435 246.021 561.743 202.386 562.944 198.005C564.997 197.489 589.606 236.291 591.542 242.251C591.831 243.142 592.637 244.457 593.02 245.386C594.35 248.611 595.322 251.984 595.926 255.44C597.441 264.067 597.564 272.286 594.916 280.651C594.23 282.82 594 285 593 287C591.71 287.553 588.914 291.127 587.416 292.384C580.939 297.822 573.584 300.522 565.309 300.913C563.027 301.021 560.176 300.821 558 300L557 299.5Z" fill="#DED1C4"/>
<path d="M374.793 376.817V347.185C374.793 345.948 374.665 345.03 374.409 344.433C374.153 343.793 373.641 343.366 372.873 343.153C372.147 342.897 371.059 342.769 369.609 342.769C369.481 342.769 369.417 342.641 369.417 342.385C369.417 342.129 369.481 342.001 369.609 342.001C370.675 342.001 371.849 342.044 373.129 342.129C374.451 342.172 375.838 342.193 377.289 342.193C378.825 342.193 380.233 342.172 381.513 342.129C382.835 342.044 384.009 342.001 385.033 342.001C385.118 342.001 385.161 342.129 385.161 342.385C385.161 342.641 385.118 342.769 385.033 342.769C383.539 342.769 382.43 342.897 381.705 343.153C380.979 343.409 380.489 343.857 380.233 344.497C379.977 345.137 379.849 346.076 379.849 347.313V376.817C379.849 378.054 379.955 378.993 380.169 379.633C380.425 380.273 380.915 380.7 381.641 380.913C382.409 381.126 383.539 381.233 385.033 381.233C385.161 381.233 385.225 381.361 385.225 381.617C385.225 381.873 385.161 382.001 385.033 382.001C383.966 382.001 382.793 381.98 381.513 381.937C380.233 381.894 378.825 381.873 377.289 381.873C375.838 381.873 374.43 381.894 373.065 381.937C371.742 381.98 370.547 382.001 369.481 382.001C369.395 382.001 369.353 381.873 369.353 381.617C369.353 381.361 369.395 381.233 369.481 381.233C370.974 381.233 372.105 381.126 372.873 380.913C373.641 380.7 374.153 380.273 374.409 379.633C374.665 378.993 374.793 378.054 374.793 376.817ZM391.049 372.721L381.321 360.241L385.161 356.913L394.633 369.265C396.467 371.697 398.025 373.681 399.305 375.217C400.585 376.753 401.651 377.948 402.505 378.801C403.401 379.612 404.169 380.209 404.809 380.593C405.491 380.934 406.131 381.126 406.729 381.169C407.369 381.212 408.073 381.233 408.841 381.233C408.969 381.233 409.033 381.361 409.033 381.617C409.033 381.873 408.969 382.001 408.841 382.001C406.963 382.001 405.449 382.001 404.297 382.001C403.145 382.001 402.27 382.001 401.673 382.001C401.203 382.001 400.819 382.001 400.521 382.001C400.222 382.044 399.923 382.065 399.625 382.065C399.07 382.065 398.601 381.958 398.217 381.745C397.833 381.532 397.385 381.105 396.873 380.465C396.361 379.825 395.657 378.886 394.761 377.649C393.865 376.412 392.627 374.769 391.049 372.721ZM376.521 364.209L392.969 347.633C394.59 346.012 395.251 344.796 394.953 343.985C394.654 343.174 393.417 342.769 391.241 342.769C391.113 342.769 391.049 342.641 391.049 342.385C391.049 342.129 391.113 342.001 391.241 342.001C392.307 342.001 393.395 342.044 394.505 342.129C395.614 342.172 397.086 342.193 398.921 342.193C400.713 342.193 402.121 342.172 403.145 342.129C404.211 342.044 405.214 342.001 406.153 342.001C406.281 342.001 406.345 342.129 406.345 342.385C406.345 342.641 406.281 342.769 406.153 342.769C404.489 342.769 402.59 343.196 400.457 344.049C398.366 344.86 396.403 346.182 394.569 348.017L378.121 364.273L376.521 364.209Z" fill="#5B4B3C"/>
<path d="M419.231 376.817C419.231 378.054 419.337 378.993 419.551 379.633C419.807 380.273 420.297 380.7 421.023 380.913C421.791 381.126 422.921 381.233 424.415 381.233C424.5 381.233 424.543 381.361 424.543 381.617C424.543 381.873 424.5 382.001 424.415 382.001C423.348 382.001 422.153 381.98 420.831 381.937C419.551 381.894 418.143 381.873 416.607 381.873C415.113 381.873 413.705 381.894 412.383 381.937C411.06 381.98 409.865 382.001 408.799 382.001C408.713 382.001 408.671 381.873 408.671 381.617C408.671 381.361 408.713 381.233 408.799 381.233C410.292 381.233 411.423 381.126 412.191 380.913C412.959 380.7 413.471 380.273 413.727 379.633C413.983 378.993 414.111 378.054 414.111 376.817V347.185C414.111 345.948 413.983 345.03 413.727 344.433C413.471 343.793 412.959 343.366 412.191 343.153C411.423 342.897 410.292 342.769 408.799 342.769C408.713 342.769 408.671 342.641 408.671 342.385C408.671 342.129 408.713 342.001 408.799 342.001C409.865 342.001 411.06 342.044 412.383 342.129C413.705 342.172 415.113 342.193 416.607 342.193C418.143 342.193 419.572 342.172 420.895 342.129C422.217 342.044 423.391 342.001 424.415 342.001C424.5 342.001 424.543 342.129 424.543 342.385C424.543 342.641 424.5 342.769 424.415 342.769C422.921 342.769 421.812 342.897 421.087 343.153C420.361 343.409 419.871 343.857 419.615 344.497C419.359 345.137 419.231 346.076 419.231 347.313V376.817Z" fill="#5B4B3C"/>
<path d="M434.012 349.169C434.012 350.876 434.439 352.348 435.292 353.585C436.146 354.822 437.255 355.932 438.62 356.913C439.986 357.852 441.436 358.79 442.972 359.729C444.551 360.668 446.066 361.67 447.516 362.737C449.01 363.804 450.226 365.062 451.164 366.513C452.146 367.921 452.636 369.649 452.636 371.697C452.636 373.788 452.082 375.665 450.972 377.329C449.906 378.993 448.37 380.316 446.364 381.297C444.402 382.278 442.034 382.769 439.26 382.769C438.151 382.769 437.02 382.662 435.868 382.449C434.759 382.278 433.692 382.022 432.668 381.681C431.644 381.34 430.706 380.913 429.852 380.401C429.682 380.273 429.532 380.124 429.404 379.953C429.319 379.782 429.276 379.526 429.276 379.185L428.636 370.033C428.594 369.82 428.679 369.713 428.892 369.713C429.148 369.67 429.298 369.734 429.34 369.905C429.724 371.228 430.236 372.572 430.876 373.937C431.516 375.302 432.284 376.561 433.18 377.713C434.076 378.822 435.143 379.74 436.38 380.465C437.66 381.19 439.132 381.553 440.796 381.553C441.948 381.553 443.058 381.34 444.124 380.913C445.234 380.486 446.13 379.782 446.812 378.801C447.495 377.777 447.836 376.369 447.836 374.577C447.836 372.529 447.388 370.801 446.492 369.393C445.596 367.985 444.444 366.769 443.036 365.745C441.628 364.721 440.135 363.74 438.556 362.801C437.063 361.862 435.612 360.881 434.204 359.857C432.839 358.833 431.73 357.66 430.876 356.337C430.023 354.972 429.596 353.329 429.596 351.409C429.596 349.105 430.194 347.206 431.388 345.713C432.626 344.22 434.183 343.11 436.06 342.385C437.98 341.66 439.943 341.297 441.948 341.297C443.271 341.297 444.615 341.425 445.98 341.681C447.346 341.937 448.583 342.3 449.692 342.769C450.076 342.94 450.332 343.132 450.46 343.345C450.588 343.516 450.652 343.708 450.652 343.921L450.972 351.921C450.972 352.049 450.866 352.134 450.652 352.177C450.439 352.22 450.29 352.156 450.204 351.985C450.076 351.26 449.799 350.364 449.372 349.297C448.946 348.188 448.37 347.121 447.644 346.097C446.919 345.03 445.98 344.156 444.828 343.473C443.719 342.748 442.354 342.385 440.732 342.385C439.239 342.385 438.002 342.705 437.02 343.345C436.039 343.942 435.292 344.753 434.78 345.777C434.268 346.758 434.012 347.889 434.012 349.169Z" fill="#5B4B3C"/>
<path d="M462.75 349.169C462.75 350.876 463.176 352.348 464.03 353.585C464.883 354.822 465.992 355.932 467.358 356.913C468.723 357.852 470.174 358.79 471.71 359.729C473.288 360.668 474.803 361.67 476.254 362.737C477.747 363.804 478.963 365.062 479.902 366.513C480.883 367.921 481.374 369.649 481.374 371.697C481.374 373.788 480.819 375.665 479.71 377.329C478.643 378.993 477.107 380.316 475.102 381.297C473.139 382.278 470.771 382.769 467.998 382.769C466.888 382.769 465.758 382.662 464.606 382.449C463.496 382.278 462.43 382.022 461.406 381.681C460.382 381.34 459.443 380.913 458.59 380.401C458.419 380.273 458.27 380.124 458.142 379.953C458.056 379.782 458.014 379.526 458.014 379.185L457.374 370.033C457.331 369.82 457.416 369.713 457.63 369.713C457.886 369.67 458.035 369.734 458.078 369.905C458.462 371.228 458.974 372.572 459.614 373.937C460.254 375.302 461.022 376.561 461.918 377.713C462.814 378.822 463.88 379.74 465.118 380.465C466.398 381.19 467.87 381.553 469.534 381.553C470.686 381.553 471.795 381.34 472.862 380.913C473.971 380.486 474.867 379.782 475.55 378.801C476.232 377.777 476.574 376.369 476.574 374.577C476.574 372.529 476.126 370.801 475.23 369.393C474.334 367.985 473.182 366.769 471.774 365.745C470.366 364.721 468.872 363.74 467.294 362.801C465.8 361.862 464.35 360.881 462.942 359.857C461.576 358.833 460.467 357.66 459.614 356.337C458.76 354.972 458.334 353.329 458.334 351.409C458.334 349.105 458.931 347.206 460.126 345.713C461.363 344.22 462.92 343.11 464.798 342.385C466.718 341.66 468.68 341.297 470.686 341.297C472.008 341.297 473.352 341.425 474.718 341.681C476.083 341.937 477.32 342.3 478.43 342.769C478.814 342.94 479.07 343.132 479.198 343.345C479.326 343.516 479.39 343.708 479.39 343.921L479.71 351.921C479.71 352.049 479.603 352.134 479.39 352.177C479.176 352.22 479.027 352.156 478.942 351.985C478.814 351.26 478.536 350.364 478.11 349.297C477.683 348.188 477.107 347.121 476.382 346.097C475.656 345.03 474.718 344.156 473.566 343.473C472.456 342.748 471.091 342.385 469.47 342.385C467.976 342.385 466.739 342.705 465.758 343.345C464.776 343.942 464.03 344.753 463.518 345.777C463.006 346.758 462.75 347.889 462.75 349.169Z" fill="#5B4B3C"/>
<path d="M613.508 341.297C616.665 341.297 619.481 341.873 621.956 343.025C624.473 344.135 626.606 345.649 628.355 347.569C630.105 349.489 631.428 351.665 632.324 354.097C633.263 356.529 633.731 359.025 633.731 361.585C633.731 364.572 633.134 367.345 631.939 369.905C630.745 372.465 629.102 374.705 627.012 376.625C624.964 378.545 622.574 380.06 619.844 381.169C617.156 382.236 614.297 382.769 611.268 382.769C608.196 382.769 605.401 382.236 602.884 381.169C600.409 380.06 598.275 378.545 596.483 376.625C594.734 374.705 593.369 372.508 592.388 370.033C591.449 367.516 590.98 364.849 590.979 362.033C590.979 358.577 591.641 355.548 592.964 352.945C594.329 350.343 596.121 348.188 598.34 346.481C600.558 344.732 602.99 343.43 605.636 342.577C608.281 341.724 610.905 341.297 613.508 341.297ZM570.065 341.809C573.649 341.809 576.38 342.577 578.258 344.113C580.177 345.607 581.138 347.612 581.138 350.129C581.138 352.518 580.454 354.652 579.089 356.529C577.75 358.37 576 359.82 573.84 360.881C577.23 365.745 580.11 369.649 582.481 372.593C584.999 375.665 587.218 377.884 589.138 379.249C591.058 380.572 592.892 381.233 594.642 381.233C594.769 381.234 594.833 381.361 594.833 381.617C594.833 381.873 594.769 382.001 594.642 382.001H585.426C584.743 382.001 583.612 381.191 582.033 379.569C580.497 377.905 578.642 375.558 576.466 372.529C574.413 369.631 572.113 366.219 569.566 362.295C568.628 362.46 567.664 362.545 566.673 362.545H565.073C564.519 362.502 564.006 362.46 563.537 362.417V376.817C563.537 378.054 563.644 378.993 563.857 379.633C564.113 380.273 564.604 380.7 565.329 380.913C566.097 381.126 567.228 381.233 568.722 381.233C568.849 381.234 568.913 381.361 568.913 381.617C568.913 381.873 568.849 382.001 568.722 382.001C567.655 382.001 566.481 381.979 565.201 381.937C563.921 381.894 562.513 381.873 560.978 381.873C559.527 381.873 558.14 381.894 556.817 381.937C555.632 381.975 554.549 381.995 553.569 381.999C553.563 381.999 553.556 382.001 553.55 382.001C553.511 382.001 553.473 382 553.435 382C553.367 382 553.3 382.001 553.233 382.001C553.226 382.001 553.218 381.999 553.211 381.998C552.079 381.991 550.912 381.951 549.71 381.873C548.43 381.788 547.171 381.745 545.934 381.745C544.568 381.745 543.374 381.788 542.35 381.873C541.368 381.958 540.259 382.001 539.021 382.001C538.851 382.001 538.766 381.873 538.766 381.617C538.766 381.361 538.851 381.234 539.021 381.233C541.112 381.233 542.393 380.913 542.862 380.273C543.332 379.591 543.097 378.267 542.158 376.305L536.863 365.297H522.595C522.624 365.248 522.653 365.2 522.682 365.151C522.946 364.725 523.21 364.305 523.472 363.889H536.186L530.828 352.752C531.003 352.494 531.177 352.238 531.35 351.983L531.362 351.965L531.374 351.946C532.411 350.365 533.29 348.951 534.009 347.715L546.382 373.233C547.406 375.324 548.281 376.967 549.006 378.161C549.774 379.313 550.521 380.123 551.246 380.593C551.949 381.006 552.691 381.217 553.474 381.23C554.805 381.219 555.812 381.114 556.497 380.913C557.265 380.7 557.777 380.273 558.033 379.633C558.332 378.993 558.481 378.054 558.481 376.817V347.185C558.481 345.947 558.354 345.03 558.098 344.433C557.842 343.793 557.35 343.367 556.625 343.153C555.9 342.897 554.79 342.769 553.297 342.769C553.212 342.768 553.169 342.64 553.169 342.385C553.169 342.129 553.212 342.001 553.297 342.001C554.364 342.001 555.537 342.044 556.817 342.129C558.14 342.172 559.527 342.193 560.978 342.193C562.343 342.193 563.879 342.129 565.585 342.001C567.292 341.873 568.785 341.809 570.065 341.809ZM706.398 341.361C706.654 341.319 706.804 341.382 706.847 341.553L722.207 373.233C723.231 375.324 724.106 376.967 724.831 378.161C725.599 379.313 726.346 380.123 727.071 380.593C727.797 381.019 728.564 381.233 729.375 381.233C729.588 381.233 729.695 381.361 729.695 381.617C729.695 381.873 729.588 382.001 729.375 382.001C728.138 382.001 726.858 381.958 725.535 381.873C724.255 381.788 722.996 381.745 721.759 381.745C720.393 381.745 719.199 381.788 718.175 381.873C717.193 381.958 716.084 382.001 714.847 382.001C714.676 382.001 714.591 381.873 714.591 381.617C714.591 381.361 714.676 381.233 714.847 381.233C716.937 381.233 718.217 380.913 718.687 380.273C719.156 379.591 718.921 378.267 717.982 376.305L712.688 365.297H697.353L693.791 373.553C692.682 376.155 692.617 378.097 693.599 379.377C694.58 380.614 696.415 381.233 699.103 381.233C699.316 381.233 699.423 381.361 699.423 381.617C699.423 381.873 699.316 382.001 699.103 382.001C697.823 382.001 696.65 381.958 695.583 381.873C694.516 381.788 693.172 381.745 691.551 381.745C689.972 381.745 688.692 381.788 687.711 381.873C687.236 381.916 686.706 381.947 686.121 381.969C686.104 381.99 686.084 382.001 686.06 382.001C685.736 382.001 685.401 381.998 685.054 381.994C684.796 381.998 684.53 382.001 684.255 382.001C684.216 382.001 684.182 381.993 684.151 381.979C683.618 381.969 683.059 381.955 682.476 381.937C681.153 381.894 679.745 381.873 678.252 381.873C676.844 381.873 675.521 381.894 674.284 381.937C673.047 381.979 671.937 382.001 670.956 382.001C670.828 382.001 670.764 381.873 670.764 381.617C670.764 381.361 670.828 381.233 670.956 381.233C673.047 381.233 674.391 380.956 674.988 380.401C675.586 379.847 675.819 378.652 675.691 376.817L674.497 348.683L660.332 381.553C660.289 381.723 660.119 381.809 659.82 381.809C659.564 381.809 659.393 381.723 659.308 381.553L643.39 348.925L642.859 374.705C642.817 376.924 643.201 378.566 644.012 379.633C644.865 380.699 646.273 381.233 648.235 381.233C648.363 381.233 648.428 381.361 648.428 381.617C648.428 381.873 648.363 382.001 648.235 382.001C647.297 382.001 646.337 381.979 645.355 381.937C644.374 381.894 643.265 381.873 642.028 381.873C640.876 381.873 639.788 381.894 638.764 381.937C637.74 381.979 636.78 382.001 635.884 382.001C635.799 382.001 635.756 381.873 635.756 381.617C635.756 381.361 635.798 381.233 635.884 381.233C637.676 381.233 638.998 380.699 639.852 379.633C640.748 378.566 641.217 376.924 641.26 374.705L641.848 345.985C640.432 343.841 638.593 342.769 636.332 342.769C636.247 342.769 636.204 342.641 636.204 342.385C636.204 342.129 636.247 342.001 636.332 342.001C637.1 342.001 637.89 342.023 638.7 342.065C639.553 342.108 640.279 342.129 640.876 342.129C641.687 342.129 642.412 342.108 643.052 342.065C643.734 342.023 644.247 342.001 644.588 342.001C645.185 342.001 645.655 342.214 645.996 342.641C646.337 343.025 646.85 343.921 647.532 345.329L661.752 374.208L675.116 343.601C675.329 343.089 675.585 342.705 675.884 342.449C676.225 342.151 676.609 342.001 677.036 342.001C677.335 342.001 677.698 342.023 678.124 342.065C678.593 342.108 679.126 342.129 679.724 342.129C680.918 342.129 681.921 342.108 682.731 342.065C683.542 342.023 684.374 342.001 685.228 342.001C685.313 342.001 685.355 342.129 685.355 342.385C685.355 342.641 685.313 342.769 685.228 342.769C683.18 342.769 681.687 343.11 680.748 343.793C679.809 344.433 679.362 345.628 679.404 347.377L680.748 376.817C680.833 378.054 681.004 378.993 681.26 379.633C681.516 380.273 682.006 380.7 682.731 380.913C683.255 381.067 683.978 381.163 684.9 381.206C685.785 381.14 686.573 380.938 687.263 380.593C688.116 380.123 688.927 379.291 689.695 378.097C690.506 376.902 691.38 375.195 692.318 372.977L705.951 341.553C705.994 341.425 706.143 341.361 706.398 341.361ZM522.986 381.885C523.143 381.911 523.294 381.933 523.441 381.953C523.294 381.933 523.142 381.911 522.985 381.885C522.902 381.871 522.818 381.853 522.735 381.831C522.818 381.853 522.902 381.871 522.986 381.885ZM514.755 381.751C514.565 381.753 514.381 381.758 514.201 381.762C514.261 381.615 514.321 381.468 514.382 381.321C514.504 381.467 514.63 381.609 514.755 381.751ZM610.884 342.833C606.404 342.833 602.927 344.348 600.452 347.377C598.02 350.406 596.804 354.545 596.804 359.793C596.804 362.822 597.188 365.659 597.956 368.305C598.767 370.907 599.919 373.191 601.412 375.153C602.905 377.116 604.676 378.651 606.724 379.761C608.772 380.827 611.033 381.361 613.508 381.361C616.196 381.361 618.628 380.678 620.804 379.312C623.022 377.905 624.751 375.879 625.988 373.233C627.268 370.545 627.908 367.26 627.908 363.377C627.908 359.409 627.204 355.889 625.796 352.817C624.431 349.703 622.468 347.27 619.908 345.521C617.391 343.729 614.382 342.833 610.884 342.833ZM697.96 363.889H712.011L704.604 348.488L697.96 363.889ZM568.081 342.897C566.46 342.897 565.287 343.196 564.562 343.793C563.879 344.348 563.537 345.521 563.537 347.312V360.817C564.134 360.86 564.774 360.903 565.457 360.945C566.182 360.988 566.801 361.009 567.313 361.009C570.471 361.009 572.69 360.284 573.97 358.833C575.25 357.382 575.89 355.163 575.89 352.177C575.89 349.788 575.57 347.932 574.93 346.609C574.29 345.244 573.372 344.283 572.178 343.729C571.026 343.174 569.66 342.897 568.081 342.897ZM531.947 345.274L531.722 345.681C531.806 345.531 531.885 345.387 531.96 345.249C531.955 345.257 531.952 345.266 531.947 345.274Z" fill="#5B4B3C"/>
<path d="M492.03 387.008C490.07 387.008 489.09 385.86 489.09 383.564C489.09 380.372 490.49 376.62 493.29 372.308C493.234 372.028 493.178 371.72 493.122 371.384C493.122 371.048 493.122 370.74 493.122 370.46C493.122 368.444 493.794 366.484 495.138 364.58C496.482 362.676 498.134 361.724 500.094 361.724C501.774 361.724 502.894 362.312 503.454 363.488C504.07 364.664 504.378 365.98 504.378 367.436C504.378 368.668 504.238 369.844 503.958 370.964C503.678 372.14 503.258 373.456 502.698 374.912C502.138 376.368 501.438 377.908 500.598 379.532C501.438 380.036 502.39 380.288 503.454 380.288C504.406 380.288 505.302 380.176 506.142 379.952C506.982 379.672 507.766 379.168 508.494 378.44C509.222 377.712 509.782 377.068 510.174 376.508C510.622 375.948 510.818 375.696 510.762 375.752C510.874 375.64 510.986 375.584 511.098 375.584C511.322 375.584 511.49 375.724 511.602 376.004C511.77 376.284 511.742 376.564 511.518 376.844C510.622 378.132 509.446 379.28 507.99 380.288C506.59 381.24 505.05 381.716 503.37 381.716C502.082 381.716 500.962 381.436 500.01 380.876C497.434 384.964 494.774 387.008 492.03 387.008ZM499.506 378.776C500.234 376.984 500.794 375.444 501.186 374.156C501.578 372.868 501.774 371.664 501.774 370.544V369.872C501.774 368.36 501.522 366.96 501.018 365.672C500.514 364.328 499.786 363.656 498.834 363.656C497.546 363.656 496.538 364.44 495.81 366.008C495.306 367.072 495.054 368.248 495.054 369.536V370.04C495.95 368.976 496.846 368.444 497.742 368.444C498.582 368.444 499.198 368.724 499.59 369.284C499.758 369.508 499.842 369.704 499.842 369.872C499.842 370.208 499.506 370.376 498.834 370.376C497.826 370.376 496.762 371.44 495.642 373.568C496.426 375.752 497.714 377.488 499.506 378.776ZM493.374 384.992C494.102 384.992 495.138 384.32 496.482 382.976C497.042 382.416 497.518 381.884 497.91 381.38C498.302 380.876 498.61 380.4 498.834 379.952C496.93 378.664 495.53 377.236 494.634 375.668C492.954 379.196 492.114 381.744 492.114 383.312C492.114 384.432 492.534 384.992 493.374 384.992Z" fill="#5B4B3C"/>
<path d="M506.102 415.904C504.03 415.904 502.658 415.064 501.986 413.384C501.314 411.76 500.978 409.828 500.978 407.588C500.978 405.628 501.342 403.248 502.07 400.448C502.742 397.648 503.638 394.652 504.758 391.46C505.822 388.324 506.998 385.216 508.286 382.136C509.63 379 510.918 376.144 512.15 373.568C513.55 370.656 514.754 368.192 515.762 366.176C516.826 364.104 517.778 362.284 518.618 360.716C519.514 359.148 520.354 357.636 521.138 356.18C521.978 354.668 522.874 353.016 523.826 351.224C524.946 349.208 525.926 347.5 526.766 346.1C527.662 344.644 528.306 343.692 528.698 343.244C528.978 342.964 529.398 342.656 529.958 342.32C530.574 341.928 531.134 341.732 531.638 341.732C532.422 341.732 532.814 342.208 532.814 343.16C532.814 343.552 532.45 344.392 531.722 345.68C530.994 346.968 530.042 348.508 528.866 350.3C527.69 352.036 526.458 353.856 525.17 355.76C523.546 358.168 521.866 360.772 520.13 363.572C518.45 366.372 516.798 369.256 515.174 372.224C515.622 371.888 516.042 371.72 516.434 371.72C518.338 371.72 519.878 374.744 521.054 380.792C521.67 381.408 522.314 381.772 522.986 381.884C523.658 381.996 524.246 382.052 524.75 382.052C526.206 382.052 527.802 381.184 529.538 379.448C530.434 378.552 531.19 377.656 531.806 376.76C532.422 375.864 532.898 375.22 533.234 374.828C533.402 374.66 533.57 374.576 533.738 374.576C534.13 374.576 534.326 374.744 534.326 375.08C534.326 375.36 534.13 375.78 533.738 376.34C532.226 378.468 530.742 380.204 529.286 381.548C527.83 382.836 526.346 383.508 524.834 383.564C523.994 383.564 523.21 383.48 522.482 383.312C521.81 383.088 521.362 382.836 521.138 382.556C521.642 385.804 521.67 388.94 521.222 391.964C520.83 395.044 520.046 398.208 518.87 401.456C517.974 403.864 516.91 406.16 515.678 408.344C514.502 410.584 513.13 412.404 511.562 413.804C509.994 415.204 508.174 415.904 506.102 415.904ZM507.278 413.636C508.734 413.636 510.078 412.964 511.31 411.62C512.598 410.276 513.746 408.652 514.754 406.748C515.762 404.844 516.602 403.024 517.274 401.288C518.506 398.096 519.29 394.82 519.626 391.46C520.018 388.156 519.878 384.936 519.206 381.8C517.918 380.848 516.77 379.644 515.762 378.188C514.81 376.676 514.334 375.22 514.334 373.82C511.03 381.268 508.426 387.96 506.522 393.896C504.618 399.832 503.666 404.76 503.666 408.68C503.666 410.584 504.058 411.872 504.842 412.544C505.57 413.272 506.382 413.636 507.278 413.636Z" fill="#5B4B3C"/>
<path d="M561.952 250.952C565.123 253.26 567.485 256.511 568.698 260.241C569.912 263.971 569.916 267.989 568.71 271.722C567.504 275.454 565.15 278.71 561.983 281.025C558.816 283.34 554.999 284.595 551.076 284.611C547.154 284.627 543.327 283.404 540.141 281.115C536.955 278.826 534.574 275.59 533.338 271.867C532.101 268.145 532.072 264.127 533.255 260.387C534.438 256.647 536.772 253.376 539.925 251.042C539.925 251.042 552.784 263.519 551 279.649C549.062 263.519 561.952 250.952 561.952 250.952Z" fill="#5B4B3C"/>
<path d="M551 264C551 264 548.867 255.609 547.5 253.5C546.133 251.391 544 248.247 544 248.247C544 248.247 546.133 246.053 547.5 244.647C548.867 243.241 551 241.047 551 241.047C551 241.047 553.133 243.241 554.5 244.647C555.867 246.053 558 248.247 558 248.247C558 248.247 555.5 251.5 554.5 253.5C553.5 255.5 551 264 551 264Z" fill="#5B4B3C"/>
  </g>
</svg>